<svg width="41" height="44" viewBox="0 0 41 44" fill="none" xmlns="http://www.w3.org/2000/svg">
<rect x="0.5" y="-0.5" width="41" height="45" stroke="#D9D9D9"/>
<path d="M28.9881 28.8831L23.7709 23.6659C24.5805 22.6193 25.0184 21.3396 25.0184 19.9936C25.0184 18.3824 24.3896 16.8717 23.2526 15.7326C22.1155 14.5936 20.6008 13.9668 18.9916 13.9668C17.3825 13.9668 15.8677 14.5956 14.7307 15.7326C13.5916 16.8697 12.9648 18.3824 12.9648 19.9936C12.9648 21.6027 13.5936 23.1175 14.7307 24.2545C15.8677 25.3936 17.3805 26.0204 18.9916 26.0204C20.3376 26.0204 21.6153 25.5824 22.6619 24.7748L27.8791 29.99C27.8944 30.0053 27.9126 30.0175 27.9326 30.0257C27.9526 30.034 27.974 30.0383 27.9956 30.0383C28.0173 30.0383 28.0387 30.034 28.0587 30.0257C28.0787 30.0175 28.0969 30.0053 28.1122 29.99L28.9881 29.1161C29.0034 29.1008 29.0155 29.0827 29.0238 29.0627C29.0321 29.0427 29.0363 29.0212 29.0363 28.9996C29.0363 28.978 29.0321 28.9565 29.0238 28.9365C29.0155 28.9166 29.0034 28.8984 28.9881 28.8831ZM22.1738 23.1757C21.322 24.0255 20.193 24.4936 18.9916 24.4936C17.7903 24.4936 16.6613 24.0255 15.8095 23.1757C14.9597 22.3239 14.4916 21.1949 14.4916 19.9936C14.4916 18.7922 14.9597 17.6612 15.8095 16.8114C16.6613 15.9617 17.7903 15.4936 18.9916 15.4936C20.193 15.4936 21.324 15.9597 22.1738 16.8114C23.0235 17.6632 23.4916 18.7922 23.4916 19.9936C23.4916 21.1949 23.0235 22.3259 22.1738 23.1757Z" fill="#8C8C8C"/>
</svg>
