<svg width="40" height="40" viewBox="0 0 40 40" fill="none" xmlns="http://www.w3.org/2000/svg">
<circle cx="20" cy="20" r="20" fill="#F0F0F0"/>
<g clip-path="url(#clip0_887_7909)">
<path d="M31.1429 10.5664H8.85714C8.38304 10.5664 8 10.9494 8 11.4235V28.5664C8 29.0405 8.38304 29.4236 8.85714 29.4236H31.1429C31.617 29.4236 32 29.0405 32 28.5664V11.4235C32 10.9494 31.617 10.5664 31.1429 10.5664ZM30.0714 13.5343V27.495H9.92857V13.5343L9.18929 12.9584L10.242 11.6057L11.3884 12.4977H28.6143L29.7607 11.6057L30.8134 12.9584L30.0714 13.5343ZM28.6143 12.495L20 19.1914L11.3857 12.495L10.2393 11.603L9.18661 12.9557L9.92589 13.5316L19.0759 20.6459C19.339 20.8503 19.6628 20.9613 19.996 20.9613C20.3292 20.9613 20.6529 20.8503 20.9161 20.6459L30.0714 13.5343L30.8107 12.9584L29.758 11.6057L28.6143 12.495Z" fill="#262626"/>
</g>
<defs>
<clipPath id="clip0_887_7909">
<rect width="24" height="24" fill="white" transform="translate(8 8)"/>
</clipPath>
</defs>
</svg>
