<svg width="40" height="40" viewBox="0 0 40 40" fill="none" xmlns="http://www.w3.org/2000/svg">
<circle cx="20" cy="20" r="20" fill="#FFE812"/>
<g clip-path="url(#clip0_887_7908)">
<path fillRule="evenodd" clipRule="evenodd" d="M8 19.4226C8 14.2218 13.369 10.0051 19.9974 10.0051L20.0026 10C26.631 10 32 14.2167 32 19.4175C32 24.6182 26.6259 28.8349 20.0026 28.8349C19.304 28.8349 18.6259 28.7839 17.963 28.6973C17.9426 28.7177 17.9018 28.7533 17.9018 28.7533L12.8082 32.1236C12.7011 32.195 12.5634 32.195 12.4512 32.1287C12.3238 32.0523 12.2677 31.9044 12.3034 31.7616L13.4965 27.3359C10.1925 25.6584 8 22.7419 8 19.4226ZM28.5271 21.4316C28.4965 21.3908 28.4608 21.3449 28.4251 21.3041C28.3894 21.2582 28.3486 21.2123 28.3027 21.1715L28.2875 21.1562C28.1651 21.0135 28.0427 20.8758 27.9152 20.733C27.7878 20.5954 27.6552 20.4526 27.5175 20.3098C27.4967 20.289 27.4748 20.2661 27.4509 20.241C27.4222 20.2109 27.3906 20.1778 27.3544 20.1416L27.1453 19.9223C27.1093 19.8864 27.0734 19.8492 27.0353 19.8099C26.9924 19.7657 26.9468 19.7187 26.8955 19.6674L26.7731 19.545L28.1855 18.1021C28.1855 18.1021 28.2161 18.0664 28.2314 18.0511C28.262 18.0256 28.2875 17.995 28.3027 17.9746L28.3028 17.9746C28.3333 17.944 28.3588 17.9185 28.3792 17.8879L28.4455 17.8063C28.471 17.7758 28.4914 17.7452 28.5118 17.7146L28.5118 17.7146L28.5628 17.6228C28.5934 17.5565 28.6036 17.4851 28.6036 17.3882C28.5883 17.2914 28.5526 17.2149 28.4965 17.1537C28.471 17.118 28.4404 17.0874 28.4047 17.0619C28.3921 17.0525 28.3815 17.043 28.3668 17.03L28.3667 17.0299C28.3576 17.0219 28.347 17.0124 28.3333 17.0007C28.2875 16.9701 28.2416 16.9446 28.1957 16.9242C28.1447 16.9038 28.0937 16.8885 28.0325 16.8834C27.9101 16.8682 27.798 16.8937 27.7062 16.9497C27.5787 16.9956 27.4665 17.067 27.3748 17.1741L27.2728 17.2659C27.2499 17.2863 27.2282 17.3067 27.2065 17.327C27.1848 17.3474 27.1632 17.3678 27.1402 17.3882L27.1198 17.4086C26.9822 17.5411 26.8497 17.6736 26.7172 17.8062L26.717 17.8063L26.717 17.8064C26.5844 17.9389 26.4468 18.0766 26.3091 18.2244C26.2428 18.3009 26.1715 18.3723 26.1001 18.4437V17.5565C26.1001 17.5157 26.095 17.48 26.0899 17.4494C26.0899 17.4137 26.0848 17.3831 26.0797 17.3525C26.0695 17.2659 26.044 17.1945 26.0134 17.1384C26.0032 17.1027 25.9879 17.0721 25.9675 17.0466C25.9471 17.016 25.9267 16.9905 25.8961 16.9599C25.8196 16.8987 25.7381 16.858 25.6463 16.8427L25.5494 16.8274C25.5086 16.8223 25.4678 16.8172 25.427 16.8172L25.2741 16.8478C25.218 16.858 25.1619 16.8835 25.1109 16.914C25.0089 16.9752 24.9324 17.0619 24.8917 17.1639C24.8356 17.2812 24.8101 17.4035 24.8101 17.5106L24.8101 17.5107L24.8101 17.5107C24.805 17.5668 24.7999 17.6228 24.7999 17.6789C24.7999 17.7248 24.7999 17.7655 24.7846 17.842V17.8675C24.7846 17.9617 24.7832 18.0501 24.7818 18.1337V18.1338C24.7806 18.2086 24.7795 18.2794 24.7795 18.3468C24.7795 18.4896 24.7795 18.6527 24.7846 18.8363C24.7999 19.1983 24.805 19.545 24.805 19.8713L24.8203 21.6355C24.8203 21.6355 24.8203 21.6559 24.8152 21.7018V21.763C24.8152 21.7987 24.8152 21.8293 24.8254 21.8446C24.8254 21.8573 24.8279 21.8701 24.8305 21.8828C24.833 21.8956 24.8356 21.9083 24.8356 21.9211C24.8356 21.9516 24.8407 21.9822 24.8458 21.9873C24.8458 22.0587 24.8662 22.1352 24.907 22.2015V22.2576L24.9477 22.3035C24.9987 22.3952 25.065 22.4666 25.1517 22.5176C25.2333 22.5533 25.3098 22.5788 25.3862 22.589H25.4474C25.5086 22.589 25.5749 22.5788 25.6412 22.5584C25.7432 22.5482 25.8298 22.5074 25.9114 22.4309C25.918 22.4243 25.9246 22.4172 25.9314 22.4098L25.9314 22.4098C25.9456 22.3945 25.9605 22.3784 25.9777 22.3646C26.0083 22.329 26.0287 22.2882 26.044 22.2474C26.0644 22.1913 26.0848 22.125 26.1052 22.0485L26.1205 21.9822L26.1224 21.9689L26.1224 21.9688C26.1268 21.9387 26.1307 21.9121 26.1307 21.8854L26.1154 20.6871L27.2932 21.9211L27.3901 22.023C27.3901 22.023 27.4207 22.0587 27.4411 22.0791C27.4525 22.0929 27.464 22.1056 27.4746 22.1174C27.4874 22.1316 27.4989 22.1444 27.5073 22.1556C27.5328 22.1913 27.5634 22.2219 27.5991 22.2474L27.6807 22.3137C27.7113 22.3391 27.7418 22.3595 27.7724 22.3799L27.7725 22.3799L27.8541 22.4309C27.8846 22.4513 27.9152 22.4666 27.9509 22.4768C27.9917 22.4921 28.0376 22.5023 28.0682 22.5023C28.1753 22.5176 28.2722 22.5023 28.3333 22.4666C28.3792 22.4513 28.4149 22.4309 28.4557 22.4054C28.4663 22.397 28.4787 22.3876 28.4909 22.3785C28.4993 22.3723 28.5076 22.3662 28.5153 22.3605L28.5373 22.3443C28.624 22.2831 28.6903 22.1964 28.7157 22.1046C28.7667 21.9924 28.7667 21.8701 28.7157 21.7579C28.6801 21.6406 28.6189 21.5335 28.5373 21.4469L28.5271 21.4316ZM15.2498 17.9998C15.2141 18.01 15.1733 18.0202 15.1325 18.0253L15.1223 18.01C15.0917 18.0151 15.0611 18.0202 15.0254 18.0304C14.9642 18.0406 14.9234 18.0406 14.8827 18.0406H14.3881C14.3065 18.0457 14.2148 18.0457 14.1231 18.0457H14.1229H14.0159V18.3975C14.0159 18.576 14.0159 18.785 14.0057 19.0196V19.8405V20.9214V21.4925C14.0057 21.5282 14.0108 21.5741 14.0108 21.5741V21.6608C14.0108 21.6825 14.007 21.708 14.0028 21.7372L14.0006 21.7526L14.0006 21.7526C13.9904 21.7985 13.9802 21.8443 13.9802 21.8953C13.9802 21.9208 13.9751 21.9565 13.97 21.9871C13.9672 21.9968 13.9648 22.006 13.9625 22.0151C13.9563 22.0394 13.9505 22.0617 13.9394 22.084L13.8833 22.1859C13.8476 22.2624 13.7813 22.3287 13.6895 22.3899C13.5825 22.4409 13.4805 22.4664 13.3734 22.4664C13.3173 22.4664 13.2612 22.4613 13.2052 22.446C13.1083 22.4358 13.0165 22.4001 12.9502 22.3491C12.8788 22.2777 12.8329 22.2165 12.8075 22.1553C12.7769 22.0993 12.7565 22.033 12.7463 21.9667C12.731 21.9106 12.7208 21.8545 12.7208 21.7933V18.0763H12.6851H12.3792C12.267 18.0763 12.165 18.0712 12.0681 18.0661C11.9661 18.061 11.8948 18.0559 11.8591 18.0508L11.7163 18.0253C11.6449 18.0151 11.5939 18.0049 11.548 17.9947C11.4104 17.9539 11.3084 17.8928 11.2268 17.8061C11.1452 17.7092 11.1045 17.6021 11.1045 17.4849V17.3931C11.1045 17.3472 11.1147 17.2962 11.1299 17.2554C11.1452 17.1789 11.2064 17.0973 11.3084 17.0362C11.3186 17.026 11.3594 17.0005 11.4104 16.975C11.4614 16.9495 11.5175 16.9291 11.5684 16.9138C11.6296 16.8934 11.7112 16.873 11.8132 16.8628C11.8591 16.8526 11.905 16.8526 11.9508 16.8526H11.9509H12.578C12.6521 16.8526 12.7298 16.8514 12.8099 16.8502C12.8952 16.8489 12.9832 16.8475 13.0726 16.8475H13.9496C14.2402 16.8526 14.5308 16.8577 14.8164 16.8679C14.8928 16.873 14.9591 16.8832 15.0254 16.8934L15.0254 16.8934C15.0968 16.9036 15.1682 16.924 15.2396 16.9546C15.2804 16.9699 15.3364 16.9954 15.3823 17.0209C15.4384 17.0566 15.4894 17.0974 15.5251 17.1483C15.6016 17.2401 15.6424 17.3421 15.6424 17.4441V17.5511C15.6373 17.5919 15.6322 17.6276 15.6271 17.6582C15.6067 17.75 15.5608 17.8214 15.4894 17.8928C15.418 17.9488 15.3415 17.9794 15.2498 17.9998ZM19.9102 21.8033V21.7931C19.9055 21.7775 19.9013 21.7619 19.8971 21.7465L19.8971 21.7465C19.8877 21.7114 19.8785 21.6771 19.8643 21.6452L18.2735 17.7192L18.2327 17.6019C18.2174 17.5611 18.2021 17.5254 18.1817 17.4897C18.1715 17.4744 18.1664 17.4591 18.1562 17.4234C18.1256 17.3521 18.095 17.2858 18.0593 17.2195C18.0185 17.1583 17.9777 17.1022 17.9421 17.0563C17.8962 16.9951 17.835 16.9492 17.7432 16.9085C17.5698 16.8473 17.3353 16.8422 17.1415 16.9085C17.0651 16.9441 16.9988 16.99 16.958 17.0512L16.8968 17.1277C16.8713 17.1634 16.8458 17.1991 16.8305 17.2297C16.7948 17.2858 16.7642 17.3521 16.7336 17.4387C16.7304 17.4515 16.7252 17.4643 16.7205 17.4759L16.7205 17.4759L16.7205 17.4759C16.7177 17.4828 16.7151 17.4891 16.7132 17.4948C16.6929 17.5305 16.6776 17.5661 16.6623 17.6018L16.6623 17.6019L16.6623 17.6019L15.051 21.584L15.0306 21.6503C15.0153 21.7013 15 21.7523 14.9899 21.8084C14.9848 21.8441 14.9797 21.8747 14.9746 21.9053V22.0123C14.9746 22.1041 15.0001 22.1908 15.051 22.2571C15.0765 22.2928 15.102 22.3285 15.1377 22.3642C15.1734 22.3998 15.2193 22.4253 15.255 22.4406C15.408 22.5273 15.5762 22.5579 15.77 22.5273C15.8617 22.5018 15.9433 22.461 16.0096 22.3998L16.0963 22.3183C16.1033 22.3101 16.1102 22.3023 16.117 22.2946L16.117 22.2946L16.117 22.2946C16.14 22.2686 16.161 22.245 16.1728 22.2214C16.1932 22.1908 16.2085 22.1602 16.2136 22.1449L16.3002 21.9919C16.3002 21.9919 16.3206 21.9461 16.3308 21.9308C16.3341 21.9209 16.3395 21.911 16.3457 21.8998L16.3457 21.8997L16.3457 21.8997C16.3491 21.8935 16.3527 21.887 16.3563 21.8798C16.3716 21.8441 16.3818 21.8084 16.3971 21.7523L16.5144 21.477H17.4526H18.3856L18.4978 21.737L18.5012 21.7507C18.5103 21.7877 18.5199 21.8265 18.5335 21.8492C18.5437 21.8849 18.5539 21.9155 18.5692 21.941L18.6406 22.0684C18.6406 22.0684 18.661 22.1041 18.6763 22.1449L18.7222 22.2214C18.7426 22.252 18.7681 22.2826 18.8037 22.3183L18.8241 22.3387C18.8394 22.3642 18.8649 22.3897 18.8904 22.4049C18.9618 22.461 19.0434 22.5069 19.1505 22.5375L19.1627 22.5391L19.1627 22.5391C19.1985 22.5436 19.2311 22.5477 19.2677 22.5477C19.4003 22.5477 19.5227 22.5171 19.6297 22.4559C19.6807 22.4355 19.7215 22.405 19.7623 22.3744C19.798 22.3438 19.8286 22.3081 19.8439 22.2775C19.8949 22.201 19.9255 22.1194 19.9255 22.0276V21.9206C19.9255 21.8939 19.9216 21.8672 19.9172 21.8371L19.9172 21.837L19.9153 21.8237L19.9102 21.8033ZM17.8911 20.1615H17.006L17.0549 20.0442C17.1211 19.8963 17.1874 19.7485 17.2537 19.5904C17.2912 19.5029 17.3307 19.4172 17.3708 19.33L17.3709 19.33L17.3709 19.33L17.3709 19.3299C17.3962 19.2749 17.4219 19.2193 17.4475 19.1621C17.5138 19.3049 17.58 19.4528 17.6412 19.5904C17.7075 19.7434 17.7738 19.8963 17.8401 20.0391L17.8911 20.1615ZM24.1267 21.5128C24.0706 21.4618 24.0043 21.421 23.9329 21.4006C23.9151 21.3955 23.896 21.3904 23.8769 21.3853L23.8768 21.3853C23.8631 21.3816 23.8493 21.378 23.836 21.3743C23.8308 21.3729 23.8257 21.3714 23.8207 21.37C23.7901 21.3649 23.7545 21.3598 23.7137 21.3547L23.7014 21.3532C23.6656 21.3486 23.633 21.3445 23.5964 21.3445H23.4893L21.7965 21.3292L21.8271 17.9334V17.7142C21.8271 17.7142 21.8271 17.6836 21.8322 17.6683V17.6224C21.8356 17.5954 21.8345 17.5706 21.8334 17.5451V17.5451V17.5451C21.8328 17.5321 21.8322 17.5189 21.8322 17.5051L21.8322 17.505C21.8271 17.4745 21.822 17.4439 21.8169 17.4184C21.8118 17.3522 21.7965 17.2808 21.7659 17.1992C21.7353 17.138 21.6996 17.087 21.6436 17.0258C21.6028 16.9952 21.5671 16.9697 21.5314 16.9494C21.4906 16.9239 21.4447 16.9086 21.3988 16.9035L21.2917 16.8882C21.1439 16.878 20.9756 16.8984 20.8685 16.9748C20.7666 17.036 20.6901 17.1227 20.6544 17.2094C20.5983 17.3063 20.5626 17.4286 20.5524 17.5765V17.7193C20.5524 17.7579 20.5488 17.8001 20.5446 17.849L20.5446 17.8491V17.8491L20.5422 17.8773V17.913C20.5422 18.0039 20.5394 18.0892 20.5367 18.1703V18.1704V18.1704C20.5343 18.244 20.532 18.3142 20.532 18.3821V18.8665L20.5167 20.9672C20.5167 21.1253 20.5167 21.2884 20.5116 21.4516C20.5065 21.6249 20.5116 21.7983 20.532 21.9615V21.9615C20.532 21.9972 20.532 22.0329 20.5422 22.0634C20.5473 22.094 20.5575 22.1246 20.5728 22.1552C20.6289 22.298 20.7207 22.4 20.8532 22.4662C20.9654 22.5223 21.0929 22.558 21.2306 22.5733C21.3121 22.5835 21.3937 22.5835 21.4752 22.5835H21.4753H21.6232L21.6332 22.5831C21.7466 22.5781 21.8504 22.5736 21.9495 22.5835H23.1477H23.2038C23.2855 22.5693 23.3723 22.5675 23.4449 22.5659H23.4451C23.4766 22.5653 23.5054 22.5647 23.5301 22.5631C23.6525 22.5631 23.7799 22.5427 23.9176 22.4968C24.0298 22.456 24.1216 22.3949 24.1777 22.3133C24.2133 22.2725 24.2388 22.2266 24.2592 22.1807C24.2847 22.1246 24.2949 22.0685 24.2949 22.0074V21.8901C24.2949 21.8289 24.2898 21.7728 24.2694 21.732C24.2439 21.6555 24.198 21.5842 24.1267 21.523V21.5128Z" fill="#262626"/>
</g>
<defs>
<clipPath id="clip0_887_7908">
<rect width="24" height="24" fill="white" transform="translate(8 8)"/>
</clipPath>
</defs>
</svg>
