<svg width="40" height="40" viewBox="0 0 40 40" fill="none" xmlns="http://www.w3.org/2000/svg">
<circle cx="20" cy="20" r="20" fill="#262626"/>
<path d="M21.6607 24.1069C21.6204 24.067 21.566 24.0447 21.5093 24.0447C21.4526 24.0447 21.3983 24.067 21.358 24.1069L18.2455 27.2194C16.8044 28.6605 14.3723 28.8132 12.7812 27.2194C11.1874 25.6257 11.3401 23.1962 12.7812 21.7551L15.8937 18.6426C15.9767 18.5596 15.9767 18.423 15.8937 18.34L14.8276 17.2739C14.7873 17.234 14.733 17.2116 14.6763 17.2116C14.6196 17.2116 14.5652 17.234 14.5249 17.2739L11.4124 20.3864C9.14637 22.6525 9.14637 26.3194 11.4124 28.5828C13.6785 30.8462 17.3455 30.8489 19.6089 28.5828L22.7214 25.4703C22.8044 25.3873 22.8044 25.2507 22.7214 25.1676L21.6607 24.1069ZM28.5874 11.4105C26.3214 9.14442 22.6544 9.14442 20.391 11.4105L17.2758 14.523C17.236 14.5633 17.2136 14.6177 17.2136 14.6743C17.2136 14.731 17.236 14.7854 17.2758 14.8257L18.3392 15.8891C18.4223 15.9721 18.5589 15.9721 18.6419 15.8891L21.7544 12.7766C23.1955 11.3355 25.6276 11.1828 27.2187 12.7766C28.8124 14.3703 28.6598 16.7998 27.2187 18.2408L24.1062 21.3533C24.0663 21.3936 24.0439 21.448 24.0439 21.5047C24.0439 21.5614 24.0663 21.6158 24.1062 21.656L25.1723 22.7221C25.2553 22.8051 25.3919 22.8051 25.4749 22.7221L28.5874 19.6096C30.8508 17.3435 30.8508 13.6766 28.5874 11.4105ZM22.6276 16.256C22.5873 16.2161 22.533 16.1938 22.4763 16.1938C22.4196 16.1938 22.3652 16.2161 22.3249 16.256L16.258 22.3203C16.2181 22.3606 16.1957 22.415 16.1957 22.4717C16.1957 22.5283 16.2181 22.5827 16.258 22.623L17.3187 23.6837C17.4017 23.7667 17.5383 23.7667 17.6214 23.6837L23.6857 17.6194C23.7687 17.5364 23.7687 17.3998 23.6857 17.3167L22.6276 16.256Z" fill="white"/>
</svg>
